<svg xmlns="http://www.w3.org/2000/svg" version="1.1" xmlns:xlink="http://www.w3.org/1999/xlink" xmlns:svgjs="http://svgjs.dev/svgjs" width="1000" height="1000" viewBox="0 0 1000 1000"><rect width="1000" height="1000" fill="#755bb4"></rect><g transform="matrix(0.7,0,0,0.7,149.57575757575756,282.1265587044535)"><svg viewBox="0 0 396 247" data-background-color="#755bb4" preserveAspectRatio="xMidYMid meet" height="623" width="1000" xmlns="http://www.w3.org/2000/svg" xmlns:xlink="http://www.w3.org/1999/xlink"><g id="tight-bounds" transform="matrix(1,0,0,1,0.2400000000000091,-0.09999999999999432)"><svg viewBox="0 0 395.52 247.2" height="247.2" width="395.52"><g><svg></svg></g><g><svg viewBox="0 0 395.52 247.2" height="247.2" width="395.52"><g transform="matrix(1,0,0,1,75.54432,49.58271600941495)"><svg viewBox="0 0 244.43135999999998 148.03456798117008" height="148.03456798117008" width="244.43135999999998"><g><svg viewBox="0 0 244.43135999999998 148.03456798117008" height="148.03456798117008" width="244.43135999999998"><g><svg viewBox="0 0 244.43135999999998 148.03456798117008" height="148.03456798117008" width="244.43135999999998"><g id="textblocktransform"><svg viewBox="0 0 244.43135999999998 148.03456798117008" height="148.03456798117008" width="244.43135999999998" id="textblock"><g><rect width="244.43135999999998" height="102.63732140047595" fill="none" stroke-width="5.573187777599999" stroke="#ffffff" data-fill-palette-color="none" data-stroke-palette-color="tertiary"></rect><rect width="244.43135999999998" height="45.39724658069414" y="102.63732140047595" fill="#ffffff" data-fill-palette-color="tertiary"></rect></g><g><svg viewBox="0 0 244.43135999999998 102.63732140047595" height="102.63732140047595" width="244.43135999999998"><g transform="matrix(1,0,0,1,14.5894968,14.5894968)"><svg width="215.25236639999997" viewBox="3.740000009536743 -35.0099983215332 102.58000183105469 35.0099983215332" height="73.45832780047596" data-palette-color="#ffffff"><path d="M10.08-35.01L10.08 0 3.74 0 3.74-35.01 10.08-35.01ZM52.49-27.29L52.49-23.24Q52.49-21.07 51.95-19.36 51.41-17.65 50.5-16.35 49.58-15.04 48.39-14.11 47.19-13.18 45.88-12.59 44.58-11.99 43.25-11.72 41.92-11.45 40.74-11.45L40.74-11.45 54 0 44.19 0 30.95-11.45 26.39-11.45 26.39-17.8 40.74-17.8Q41.94-17.9 42.93-18.3 43.92-18.7 44.64-19.38 45.36-20.07 45.75-21.03 46.14-22 46.14-23.24L46.14-23.24 46.14-27.25Q46.14-27.78 46.01-28.06 45.87-28.34 45.66-28.48 45.46-28.61 45.22-28.64 44.99-28.66 44.8-28.66L44.8-28.66 23.85-28.66 23.85 0 17.5 0 17.5-31.81Q17.5-32.47 17.75-33.06 17.99-33.64 18.42-34.08 18.85-34.52 19.43-34.77 20.02-35.01 20.7-35.01L20.7-35.01 44.8-35.01Q46.92-35.01 48.39-34.24 49.85-33.47 50.77-32.31 51.68-31.15 52.08-29.81 52.49-28.47 52.49-27.29L52.49-27.29ZM65.25-35.01L65.25 0 58.91 0 58.91-35.01 65.25-35.01ZM106.32-10.3L106.32-10.3Q106.32-8.42 105.84-6.92 105.36-5.42 104.58-4.27 103.8-3.13 102.75-2.32 101.7-1.51 100.58-1 99.46-0.49 98.3-0.24 97.14 0 96.11 0L96.11 0 71.62 0 71.62-6.35 96.11-6.35Q97.94-6.35 98.95-7.42 99.97-8.5 99.97-10.3L99.97-10.3Q99.97-11.18 99.7-11.91 99.43-12.65 98.93-13.18 98.43-13.72 97.71-14.01 96.99-14.31 96.11-14.31L96.11-14.31 81.51-14.31Q79.97-14.31 78.19-14.86 76.41-15.41 74.88-16.63 73.36-17.85 72.34-19.82 71.33-21.8 71.33-24.66L71.33-24.66Q71.33-27.51 72.34-29.48 73.36-31.45 74.88-32.68 76.41-33.91 78.19-34.46 79.97-35.01 81.51-35.01L81.51-35.01 103.12-35.01 103.12-28.66 81.51-28.66Q79.7-28.66 78.69-27.56 77.68-26.46 77.68-24.66L77.68-24.66Q77.68-22.83 78.69-21.77 79.7-20.7 81.51-20.7L81.51-20.7 96.11-20.7 96.16-20.7Q97.18-20.68 98.33-20.42 99.48-20.17 100.62-19.63 101.75-19.09 102.78-18.27 103.8-17.46 104.59-16.31 105.39-15.16 105.85-13.67 106.32-12.18 106.32-10.3Z" opacity="1" transform="matrix(1,0,0,1,0,0)" fill="#ffffff" class="wordmark-text-0" data-fill-palette-color="primary" id="text-0"></path></svg></g></svg></g></svg></g></svg></g></svg></g></svg></g><path d="M246.551 43.583L246.551 0 0 0 0 247.2 246.551 247.2 246.551 203.617 243.765 203.617 243.765 244.413 2.787 244.413 2.787 2.787 243.765 2.787 243.765 43.583Z" fill="#ffffff" stroke="transparent" data-fill-palette-color="primary"></path></svg></g><defs></defs></svg><rect width="395.52" height="247.2" fill="none" stroke="none" visibility="hidden"></rect></g></svg></g></svg>